<svg width="0" height="0" xmlns="http://www.w3.org/2000/svg">
  <symbol id="burgerIcon" viewBox="0 0 24 18">
    <path fill-rule="evenodd" clip-rule="evenodd" d="M0 0h24v3H0V0Zm0 7.5h24v3H0v-3ZM0 15h24v3H0v-3Z" fill="currentColor"/>
  </symbol>

  <symbol id="basketIcon" viewBox="0 0 24 24">
    <path fill-rule="evenodd" clip-rule="evenodd" d="M16.39 15.31H12.2a.5.5 0 1 1 0-1h4.19a.5.5 0 1 1 0 1ZM19.21 15a.388.388 0 0 1-.18 0 .49.49 0 0 1-.29-.64L21.12 8a.5.5 0 0 1 .64-.29.52.52 0 0 1 .3.65l-2.38 6.33a.52.52 0 0 1-.47.31ZM9 15.19a.49.49 0 0 1-.47-.34L5.39 5.31h-3a.5.5 0 0 1-.5-.5.51.51 0 0 1 .5-.5h3.36a.51.51 0 0 1 .47.34l3.29 9.88a.49.49 0 0 1-.31.63.45.45 0 0 1-.2.03Z" fill="currentColor"/>
    <path fill-rule="evenodd" clip-rule="evenodd" d="M10.54 19.69a3 3 0 1 1 0-6 3 3 0 0 1 0 6Zm0-5a2 2 0 1 0 0 4 2 2 0 0 0 0-4ZM18.05 19.69a3 3 0 1 1 0-6 3 3 0 0 1 0 6Zm0-5a2 2 0 1 0 0 4 2 2 0 0 0 0-4Z" fill="currentColor"/>
  </symbol>

  <symbol id="searchIcon" viewBox="0 0 24 24">
    <path fill-rule="evenodd" clip-rule="evenodd" d="M9.75 17A7.25 7.25 0 1 1 17 9.77 7.26 7.26 0 0 1 9.75 17Zm0-13.5A6.25 6.25 0 1 0 16 9.77a6.25 6.25 0 0 0-6.25-6.25V3.5Z" fill="currentColor"/>
    <path fill-rule="evenodd" clip-rule="evenodd" d="M21 21.52a.469.469 0 0 1-.35-.15l-6.48-6.48a.495.495 0 1 1 .7-.7l6.48 6.48a.48.48 0 0 1 0 .7.47.47 0 0 1-.35.15Z" fill="currentColor"/>
  </symbol>

  <symbol id="storyIcon" viewBox="0 0 40 40">
    <path fill-rule="evenodd" clip-rule="evenodd" d="M20.417 20a9.167 9.167 0 1 1 9.166-9.167A9.183 9.183 0 0 1 20.417 20Zm0-16.667a7.5 7.5 0 1 0 7.5 7.5 7.517 7.517 0 0 0-7.5-7.5Z" fill="currentColor"/>
    <path fill-rule="evenodd" clip-rule="evenodd" d="M5.417 33.333a.833.833 0 0 1-.834-.833A14.184 14.184 0 0 1 18.75 18.333h3.333a.833.833 0 1 1 0 1.667H18.75a12.5 12.5 0 0 0-12.5 12.5.833.833 0 0 1-.833.833ZM27.917 38.333a.833.833 0 0 1-.834-.833V24.167a.833.833 0 0 1 1.667 0V37.5a.834.834 0 0 1-.833.833Z" fill="currentColor"/>
    <path fill-rule="evenodd" clip-rule="evenodd" d="M34.583 31.667H21.25a.833.833 0 0 1 0-1.667h13.333a.833.833 0 0 1 0 1.667Z" fill="currentColor"/>
  </symbol>


</svg>



