<svg width="0" height="0" xmlns="http://www.w3.org/2000/svg">
  <symbol id="burgerIcon" viewBox="0 0 24 18">
    <path fill-rule="evenodd" clip-rule="evenodd" d="M0 0h24v3H0V0Zm0 7.5h24v3H0v-3ZM0 15h24v3H0v-3Z" fill="currentColor"/>
  </symbol>

  <symbol id="basketIcon" viewBox="0 0 24 24">
    <path fill-rule="evenodd" clip-rule="evenodd" d="M16.39 15.31H12.2a.5.5 0 1 1 0-1h4.19a.5.5 0 1 1 0 1ZM19.21 15a.388.388 0 0 1-.18 0 .49.49 0 0 1-.29-.64L21.12 8a.5.5 0 0 1 .64-.29.52.52 0 0 1 .3.65l-2.38 6.33a.52.52 0 0 1-.47.31ZM9 15.19a.49.49 0 0 1-.47-.34L5.39 5.31h-3a.5.5 0 0 1-.5-.5.51.51 0 0 1 .5-.5h3.36a.51.51 0 0 1 .47.34l3.29 9.88a.49.49 0 0 1-.31.63.45.45 0 0 1-.2.03Z" fill="currentColor"/>
    <path fill-rule="evenodd" clip-rule="evenodd" d="M10.54 19.69a3 3 0 1 1 0-6 3 3 0 0 1 0 6Zm0-5a2 2 0 1 0 0 4 2 2 0 0 0 0-4ZM18.05 19.69a3 3 0 1 1 0-6 3 3 0 0 1 0 6Zm0-5a2 2 0 1 0 0 4 2 2 0 0 0 0-4Z" fill="currentColor"/>
  </symbol>

  <symbol id="searchIcon" viewBox="0 0 24 24">
    <path fill-rule="evenodd" clip-rule="evenodd" d="M9.75 17A7.25 7.25 0 1 1 17 9.77 7.26 7.26 0 0 1 9.75 17Zm0-13.5A6.25 6.25 0 1 0 16 9.77a6.25 6.25 0 0 0-6.25-6.25V3.5Z" fill="currentColor"/>
    <path fill-rule="evenodd" clip-rule="evenodd" d="M21 21.52a.469.469 0 0 1-.35-.15l-6.48-6.48a.495.495 0 1 1 .7-.7l6.48 6.48a.48.48 0 0 1 0 .7.47.47 0 0 1-.35.15Z" fill="currentColor"/>
  </symbol>

  <symbol id="storyIcon" viewBox="0 0 40 40">
    <path fill-rule="evenodd" clip-rule="evenodd" d="M20.417 20a9.167 9.167 0 1 1 9.166-9.167A9.183 9.183 0 0 1 20.417 20Zm0-16.667a7.5 7.5 0 1 0 7.5 7.5 7.517 7.517 0 0 0-7.5-7.5Z" fill="currentColor"/>
    <path fill-rule="evenodd" clip-rule="evenodd" d="M5.417 33.333a.833.833 0 0 1-.834-.833A14.184 14.184 0 0 1 18.75 18.333h3.333a.833.833 0 1 1 0 1.667H18.75a12.5 12.5 0 0 0-12.5 12.5.833.833 0 0 1-.833.833ZM27.917 38.333a.833.833 0 0 1-.834-.833V24.167a.833.833 0 0 1 1.667 0V37.5a.834.834 0 0 1-.833.833Z" fill="currentColor"/>
    <path fill-rule="evenodd" clip-rule="evenodd" d="M34.583 31.667H21.25a.833.833 0 0 1 0-1.667h13.333a.833.833 0 0 1 0 1.667Z" fill="currentColor"/>
  </symbol>

  <symbol id="photographyIcon" viewBox="0 0 70 70">
    <path fill-rule="evenodd" clip-rule="evenodd" d="M30.158 51.188a1.487 1.487 0 1 1-.058-2.974 1.487 1.487 0 0 1 .058 2.974ZM40.862 51.188a1.458 1.458 0 1 0 0-2.917 1.458 1.458 0 0 0 0 2.916Z" fill="currentColor"/>
    <path fill-rule="evenodd" clip-rule="evenodd" d="M41.62 62.65H28.38a12.95 12.95 0 0 1 0-25.9h13.24a12.95 12.95 0 0 1 0 25.9ZM28.38 39.667a10.034 10.034 0 1 0 0 20.066h13.24a10.033 10.033 0 1 0 0-20.066H28.38Z" fill="currentColor"/>
    <path fill-rule="evenodd" clip-rule="evenodd" d="M58.333 43.925h-7.816a1.458 1.458 0 1 1 0-2.917h7.816a5.338 5.338 0 0 0 5.309-5.308 25.463 25.463 0 0 0-25.405-25.433h-6.154A25.462 25.462 0 0 0 6.65 35.7a5.338 5.338 0 0 0 5.308 5.308h7.525a1.459 1.459 0 0 1 0 2.917h-7.67A8.225 8.225 0 0 1 3.588 35.7 28.38 28.38 0 0 1 32.083 7.35h6.154a28.38 28.38 0 0 1 28.321 28.32 8.254 8.254 0 0 1-8.225 8.255Z" fill="currentColor"/>
    <path fill-rule="evenodd" clip-rule="evenodd" d="M9.246 35.962A12.6 12.6 0 0 1 4.608 35a1.458 1.458 0 0 1-.816-1.896 1.399 1.399 0 0 1 1.866-.816 10.15 10.15 0 0 0 3.588.67 9.48 9.48 0 0 0 5.337-17.266 1.459 1.459 0 0 1 1.634-2.392 12.396 12.396 0 0 1-6.942 22.662h-.03ZM64.925 35.904a18.171 18.171 0 0 1-16.8-18.054c-.006-2.204.4-4.39 1.196-6.446a1.46 1.46 0 0 1 1.896-.816 1.4 1.4 0 0 1 .816 1.866 15.196 15.196 0 0 0 13.009 20.417 1.458 1.458 0 1 1 0 2.916l-.117.117Z" fill="currentColor"/>
  </symbol>

  <symbol id="webIcon" viewBox="0 0 70 70">
    <path fill-rule="evenodd" clip-rule="evenodd" d="M26.688 32.083H12.104a4.9 4.9 0 0 1-4.9-4.87V12.628a4.93 4.93 0 0 1 4.9-4.9h14.584a4.93 4.93 0 0 1 4.9 4.9v14.583a4.9 4.9 0 0 1-4.9 4.871ZM12.104 10.617a2.013 2.013 0 0 0-1.983 1.983v14.583a1.983 1.983 0 0 0 1.983 1.984h14.584a1.984 1.984 0 0 0 1.983-1.984V12.6a2.012 2.012 0 0 0-1.983-1.983H12.104ZM57.896 32.083H43.313a4.9 4.9 0 0 1-4.9-4.9V12.6a4.93 4.93 0 0 1 4.9-4.9h14.583a4.93 4.93 0 0 1 4.9 4.9v14.583a4.9 4.9 0 0 1-4.9 4.9ZM43.313 10.617a2.012 2.012 0 0 0-1.984 1.983v14.583a1.983 1.983 0 0 0 1.984 1.984h14.583a1.984 1.984 0 0 0 1.983-1.984V12.6a2.013 2.013 0 0 0-1.983-1.983H43.313ZM26.688 62.27H12.104a4.93 4.93 0 0 1-4.9-4.9V42.789a4.9 4.9 0 0 1 4.9-4.871h14.584a4.9 4.9 0 0 1 4.9 4.9V57.4a4.93 4.93 0 0 1-4.9 4.87ZM12.104 40.834a1.983 1.983 0 0 0-1.983 1.984V57.4a2.012 2.012 0 0 0 1.983 1.983h14.584A2.013 2.013 0 0 0 28.67 57.4V42.817a1.983 1.983 0 0 0-1.983-1.984H12.104ZM57.896 62.27H43.313a4.93 4.93 0 0 1-4.9-4.9V42.789a4.9 4.9 0 0 1 4.9-4.871h14.583a4.9 4.9 0 0 1 4.9 4.9V57.4a4.929 4.929 0 0 1-4.9 4.87ZM43.313 40.805a1.983 1.983 0 0 0-1.984 1.983v14.584a2.012 2.012 0 0 0 1.984 1.983h14.583a2.012 2.012 0 0 0 1.983-1.983V42.787a1.983 1.983 0 0 0-1.983-1.983H43.313Z" fill="currentColor"/>
  </symbol>

  <symbol id="creativityIcon" viewBox="0 0 70 70">
    <path fill-rule="evenodd" clip-rule="evenodd" d="M35 53.112a1.458 1.458 0 0 1-1.02-.437L17.353 36.05a1.46 1.46 0 0 1 0-2.07L41.825 9.187a1.196 1.196 0 0 1 1.02-.438h16.772a1.487 1.487 0 0 1 1.458 1.458l.175 16.596a1.4 1.4 0 0 1-.438 1.05L36.022 52.675a1.487 1.487 0 0 1-1.021.438ZM20.417 35 35 49.583 58.333 26.25l-.175-14.583H43.575L20.417 35Z" fill="currentColor"/>
    <path fill-rule="evenodd" clip-rule="evenodd" d="M43.138 61.25a1.516 1.516 0 0 1-1.021-.408l-32.93-32.93a1.459 1.459 0 0 1 0-2.07 1.4 1.4 0 0 1 2.042 0L44.188 58.77a1.488 1.488 0 0 1 0 2.07c-.288.262-.662.407-1.05.409Z" fill="currentColor"/>
    <path fill-rule="evenodd" clip-rule="evenodd" d="M20.417 61.075c-.395 0-.772-.158-1.05-.438L9.246 50.663a1.488 1.488 0 0 1-.496-1.08c0-.787 0-.904 11.667-12.366a1.457 1.457 0 0 1 2.49 1.035c0 .387-.15.758-.42 1.035-3.15 3.267-8.195 8.255-10.179 10.296l8.109 7.963L30.712 47.22a1.464 1.464 0 1 1 2.071 2.07L21.292 60.639a1.458 1.458 0 0 1-.875.437ZM35 36.458a1.37 1.37 0 0 1-1.02-.437 1.4 1.4 0 0 1 0-2.042l11.666-11.666a1.444 1.444 0 1 1 2.041 2.041L36.022 36.021a1.372 1.372 0 0 1-1.021.437Z" fill="currentColor"/>
  </symbol>

  <symbol id="seoIcon" viewBox="0 0 70 70">
    <path fill-rule="evenodd" clip-rule="evenodd" d="M11.667 59.792a1.516 1.516 0 0 1-.846-.263 1.43 1.43 0 0 1-.73-1.196V17.5a1.458 1.458 0 0 1 .934-1.37l14.904-5.834c.34-.118.71-.118 1.05 0l14.146 5.542 16.888-5.542a1.342 1.342 0 0 1 1.312.204 1.4 1.4 0 0 1 .583 1.167V52.5a1.429 1.429 0 0 1-.991 1.37l-17.5 5.834c-.32.116-.672.116-.992 0l-14-5.512-14.35 5.512a1.662 1.662 0 0 1-.408.088Zm14.875-8.75c.182-.044.372-.044.554 0l13.737 5.745 16.13-5.454V13.68l-15.459 5.075c-.32.116-.671.116-.991 0l-14.088-5.512-13.417 5.133v37.917l12.921-4.93a.962.962 0 0 1 .496-.204l.117-.116Z" fill="currentColor"/>
    <path fill-rule="evenodd" clip-rule="evenodd" d="M26.425 54.075a1.459 1.459 0 0 1-1.458-1.458v-40.95a1.458 1.458 0 1 1 2.916 0V52.5a1.458 1.458 0 0 1-1.458 1.575ZM41.096 59.792a1.458 1.458 0 0 1-1.458-1.459V17.5a1.458 1.458 0 1 1 2.916 0v40.833a1.458 1.458 0 0 1-1.458 1.459Z" fill="currentColor"/>
  </symbol>

  <symbol id="cssIcon" viewBox="0 0 70 70">
    <path fill-rule="evenodd" clip-rule="evenodd"  d="M51.042 61.25H18.958A10.208 10.208 0 0 1 8.75 51.042V18.958A10.208 10.208 0 0 1 18.958 8.75h32.084A10.208 10.208 0 0 1 61.25 18.958v32.084A10.209 10.209 0 0 1 51.042 61.25ZM18.958 11.667a7.292 7.292 0 0 0-7.291 7.291v32.084a7.292 7.292 0 0 0 7.291 7.291h32.084a7.292 7.292 0 0 0 7.291-7.291V18.958a7.292 7.292 0 0 0-7.291-7.291H18.958Z" fill="currentColor"/>
    <path fill-rule="evenodd" clip-rule="evenodd" d="M10.208 49.03a1.401 1.401 0 0 1-1.108-.526 1.43 1.43 0 0 1 .175-2.041L22.983 35a10.208 10.208 0 0 1 14.35 1.313L40.6 40.22a7.262 7.262 0 0 0 10.383.817l7.846-6.855a1.487 1.487 0 0 1 2.071.146 1.428 1.428 0 0 1-.146 2.042l-7.846 6.854a10.18 10.18 0 0 1-14.583-1.138L35 38.267a7.262 7.262 0 0 0-10.238-.934L11.054 48.708a1.575 1.575 0 0 1-.846.321Z" fill="currentColor"/>
  </symbol>

  <symbol id="digitalIcon" viewBox="0 0 70 70">
    <path fill-rule="evenodd" clip-rule="evenodd"  d="M35 62.708A27.708 27.708 0 1 1 62.708 35 27.738 27.738 0 0 1 35 62.708Zm0-52.5A24.791 24.791 0 1 0 59.792 35 24.82 24.82 0 0 0 35 10.208Z" fill="currentColor"/>
    <path fill-rule="evenodd" clip-rule="evenodd" d="M35 50.196A15.196 15.196 0 1 1 50.196 35 15.225 15.225 0 0 1 35 50.196Zm0-27.475A12.28 12.28 0 1 0 47.28 35 12.308 12.308 0 0 0 35 22.72Z" fill="currentColor"/>
    <path fill-rule="evenodd" clip-rule="evenodd" d="M61.25 36.458H8.75a1.458 1.458 0 1 1 0-2.916h52.5a1.458 1.458 0 1 1 0 2.916Z" fill="currentColor"/>
    <path fill-rule="evenodd" clip-rule="evenodd" d="M35 62.708a1.458 1.458 0 0 1-1.458-1.458V8.75a1.458 1.458 0 1 1 2.916 0v52.5A1.458 1.458 0 0 1 35 62.708Z" fill="currentColor"/>
  </symbol>

  <symbol id="teamFacebookIcon" viewBox="0 0 42 42">
    <path fill-rule="evenodd" clip-rule="evenodd"  d="M23.445 36.745V22.402h4.839l.719-5.616h-5.558V13.21c0-1.62.451-2.73 2.777-2.73h2.947V5.472a39.09 39.09 0 0 0-4.317-.222c-4.277 0-7.214 2.611-7.214 7.404v4.122h-4.807v5.615h4.818v14.354h5.796Z" fill="currentColor"/>
  </symbol>

  <symbol id="teamTwitterIcon" viewBox="0 0 42 42">
    <path fill-rule="evenodd" clip-rule="evenodd"  d="M34.991 11.704a7.525 7.525 0 0 0 3.303-4.155 15.032 15.032 0 0 1-4.77 1.822 7.525 7.525 0 0 0-12.802 6.851A21.323 21.323 0 0 1 5.245 8.375a7.525 7.525 0 0 0 2.324 10.028 7.483 7.483 0 0 1-3.4-.941v.094a7.515 7.515 0 0 0 6.025 7.364 7.524 7.524 0 0 1-3.392.13 7.525 7.525 0 0 0 7.016 5.215 15.067 15.067 0 0 1-9.327 3.214c-.6 0-1.2-.035-1.794-.103A21.26 21.26 0 0 0 14.21 36.75a21.222 21.222 0 0 0 21.367-21.37c0-.325-.006-.649-.022-.97a15.256 15.256 0 0 0 3.748-3.889 15.017 15.017 0 0 1-4.312 1.183Z" fill="currentColor"/>
  </symbol>

  <symbol id="teamPinterestIcon" viewBox="0 0 42 42">
    <path fill-rule="evenodd" clip-rule="evenodd"  d="M18.672 26.42c-.885 4.77-1.963 9.345-5.162 11.733-.985-7.21 1.45-12.626 2.581-18.374-1.928-3.343.233-10.072 4.3-8.415 5.005 2.041-4.335 12.429 1.936 13.727 6.546 1.355 9.22-11.695 5.16-15.94-5.866-6.127-17.075-.139-15.695 8.634.335 2.146 2.486 2.797.859 5.758-3.754-.86-4.874-3.908-4.729-7.973.231-6.65 5.805-11.309 11.395-11.953 7.07-.815 13.704 2.672 14.619 9.52 1.032 7.728-3.19 16.1-10.748 15.497-2.05-.163-2.91-1.208-4.515-2.214Z" fill="currentColor"/>
  </symbol>

  <symbol id="teamInstagramIcon" viewBox="0 0 42 42">
    <path fill-rule="evenodd" clip-rule="evenodd"  d="M21.003 36.822c-4.305 0-4.812-.023-6.492-.097a11.522 11.522 0 0 1-3.824-.787 8.084 8.084 0 0 1-4.602-4.605 11.534 11.534 0 0 1-.734-3.827c-.098-1.676-.098-2.226-.098-6.497 0-4.318.023-4.822.098-6.493.027-1.306.274-2.599.734-3.822a8.068 8.068 0 0 1 4.607-4.606 11.433 11.433 0 0 1 3.822-.735c1.672-.094 2.221-.094 6.49-.094 4.34 0 4.838.022 6.492.094 1.309.025 2.607.273 3.832.735a8.077 8.077 0 0 1 4.608 4.606c.467 1.242.718 2.555.737 3.88.098 1.676.098 2.224.098 6.494s-.025 4.83-.098 6.487a11.554 11.554 0 0 1-.735 3.831 8.091 8.091 0 0 1-4.61 4.606 11.577 11.577 0 0 1-3.825.733c-1.671.096-2.22.096-6.5.096Zm-.06-28.793c-4.28 0-4.724.02-6.395.096a8.733 8.733 0 0 0-2.923.544 5.232 5.232 0 0 0-3.006 2.996 8.764 8.764 0 0 0-.545 2.953c-.092 1.695-.092 2.14-.092 6.39 0 4.2.015 4.71.092 6.395.016.998.2 1.986.545 2.923a5.238 5.238 0 0 0 3.008 2.994 8.61 8.61 0 0 0 2.92.544c1.695.098 2.14.098 6.397.098 4.293 0 4.737-.021 6.394-.098a8.68 8.68 0 0 0 2.923-.544 5.25 5.25 0 0 0 2.992-2.991c.35-.945.534-1.946.545-2.954h.019c.075-1.673.075-2.12.075-6.395 0-4.275-.02-4.724-.094-6.396a8.857 8.857 0 0 0-.545-2.919 5.25 5.25 0 0 0-2.992-2.996 8.646 8.646 0 0 0-2.923-.544c-1.692-.096-2.135-.096-6.394-.096Zm.06 21.063A8.09 8.09 0 1 1 29.088 21a8.102 8.102 0 0 1-8.085 8.092Zm0-13.346a5.25 5.25 0 1 0 5.25 5.25 5.262 5.262 0 0 0-5.25-5.25Zm8.4-1.248a1.887 1.887 0 1 1 .014-3.774 1.887 1.887 0 0 1-.014 3.774Z" fill="currentColor"/>
  </symbol>

  <symbol id="detailsPhotoIcon" viewBox="0 0 42 42">
    <path fill-rule="evenodd" clip-rule="evenodd"  d="M21 39.042A18.042 18.042 0 1 1 39.042 21 18.06 18.06 0 0 1 21 39.042Zm0-34.334A16.293 16.293 0 1 0 37.292 21 16.327 16.327 0 0 0 21 4.708Z" fill="currentColor"/>
    <path fill-rule="evenodd" clip-rule="evenodd"  d="M14.193 28a4.813 4.813 0 1 1 0-9.625 4.813 4.813 0 0 1 0 9.625Zm0-7.875a3.063 3.063 0 1 0 3.062 2.975 3.08 3.08 0 0 0-3.062-3.063v.088ZM27.808 28a4.813 4.813 0 1 1 0-9.625 4.813 4.813 0 0 1 0 9.625Zm0-7.875a3.062 3.062 0 1 0 3.062 3.063 3.064 3.064 0 0 0-3.063-3.15v.087ZM4.235 18.13a.875.875 0 0 1-.857-.7.892.892 0 0 1 .682-1.032c.193-.035 19.128-4.148 24.22-11.148a.875.875 0 0 1 1.225-.193.893.893 0 0 1 .193 1.225c-5.495 7.543-24.448 11.655-25.27 11.83l-.193.018Z" fill="currentColor"/>
    <path fill-rule="evenodd" clip-rule="evenodd"  d="M33.25 15.225a35.264 35.264 0 0 1-12.6-2.782.878.878 0 0 1 .7-1.61c.087 0 8.295 3.657 15.19 2.362a.892.892 0 0 1 1.032.7.875.875 0 0 1-.7 1.015 18.816 18.816 0 0 1-3.622.315ZM23.87 23.975h-5.74a.875.875 0 0 1-.875-.875.893.893 0 0 1 .875-.875h5.74a.893.893 0 0 1 .875.875.875.875 0 0 1-.875.875ZM10.255 23.975H3.973a.875.875 0 0 1-.875-.875.892.892 0 0 1 .875-.875h6.282a.875.875 0 1 1 0 1.75ZM38.045 23.975h-6.3a.875.875 0 1 1 0-1.75h6.3a.875.875 0 1 1 0 1.75Z" fill="currentColor"/>
  </symbol>

  <symbol id="detailsCreatIcon" viewBox="0 0 42 42">
    <path fill-rule="evenodd" clip-rule="evenodd"  d="M21 26.372A5.372 5.372 0 1 1 26.373 21 5.39 5.39 0 0 1 21 26.372Zm0-8.995a3.623 3.623 0 1 0 0 7.246 3.623 3.623 0 0 0 0-7.246Z" fill="currentColor"/>
    <path fill-rule="evenodd" clip-rule="evenodd"  d="M21 32.375a11.375 11.375 0 1 1 0-22.75 11.375 11.375 0 0 1 0 22.75Zm0-21A9.625 9.625 0 1 0 30.625 21 9.642 9.642 0 0 0 21 11.375Z" fill="currentColor"/>
    <path fill-rule="evenodd" clip-rule="evenodd"  d="M21 38.377A17.378 17.378 0 1 1 38.378 21 17.395 17.395 0 0 1 21 38.377Zm0-33.005a15.627 15.627 0 1 0 0 31.255 15.627 15.627 0 0 0 0-31.255Z" fill="currentColor"/>
  </symbol>

  <symbol id="detailsWebIcon" viewBox="0 0 42 42">
    <path fill-rule="evenodd" clip-rule="evenodd"  d="M21 39.218a4.341 4.341 0 0 1-3.325-1.54l-1.54-1.75A2.641 2.641 0 0 0 14 35l-2.345.21a4.375 4.375 0 0 1-4.725-4.707L7 28.105a2.608 2.608 0 0 0-.928-2.205l-1.75-1.522a4.358 4.358 0 0 1 0-6.668l1.75-1.54A2.643 2.643 0 0 0 7 14l-.175-2.398a4.375 4.375 0 0 1 4.707-4.725L13.895 7a2.608 2.608 0 0 0 2.205-.858l1.522-1.75a4.358 4.358 0 0 1 5.21-1.208 4.339 4.339 0 0 1 1.493 1.138l1.54 1.75A2.678 2.678 0 0 0 28 7l2.345-.21a4.375 4.375 0 0 1 4.725 4.708L35 13.895a2.61 2.61 0 0 0 .927 2.205l1.75 1.522a4.356 4.356 0 0 1 0 6.668l-1.75 1.54A2.644 2.644 0 0 0 35 28l.21 2.363a4.374 4.374 0 0 1-4.708 4.724L28.105 35a2.623 2.623 0 0 0-2.205.928l-1.523 1.75a4.357 4.357 0 0 1-3.325 1.557L21 39.218Zm-6.825-5.968a4.339 4.339 0 0 1 3.325 1.54l1.54 1.75a2.573 2.573 0 0 0 1.995.928 2.693 2.693 0 0 0 2.012-.928l1.523-1.75a4.27 4.27 0 0 1 3.675-1.54l2.362.175a2.573 2.573 0 0 0 2.065-.752 2.642 2.642 0 0 0 .753-2.083l-.175-2.398a4.324 4.324 0 0 1 1.505-3.692l1.75-1.54a2.573 2.573 0 0 0 .962-1.96 2.695 2.695 0 0 0-.927-2.012l-1.75-1.523a4.287 4.287 0 0 1-1.54-3.71l.175-2.363a2.59 2.59 0 0 0-1.71-2.671c-.36-.13-.744-.18-1.125-.146l-2.398.175A4.27 4.27 0 0 1 24.5 7.245l-1.54-1.75A2.572 2.572 0 0 0 21 4.532a2.694 2.694 0 0 0-2.013.928l-1.522 1.75a4.305 4.305 0 0 1-3.71 1.54l-2.363-.175a2.59 2.59 0 0 0-2.065.752 2.642 2.642 0 0 0-.752 2.136l.175 2.345A4.322 4.322 0 0 1 7.245 17.5l-1.75 1.54A2.573 2.573 0 0 0 4.532 21a2.695 2.695 0 0 0 .928 2.012l1.75 1.523a4.287 4.287 0 0 1 1.54 3.71l-.175 2.363a2.59 2.59 0 0 0 1.71 2.671c.36.13.744.18 1.125.146l2.397-.175h.368Z" fill="currentColor"/>
    <path fill-rule="evenodd" clip-rule="evenodd"  d="M21 27.125a6.125 6.125 0 1 1 0-12.25 6.125 6.125 0 0 1 0 12.25Zm0-10.5a4.375 4.375 0 1 0 0 8.75 4.375 4.375 0 0 0 0-8.75Z" fill="currentColor"/>
  </symbol>

  <symbol id="ourWorkIcon" viewBox="0 0 42 42">
    <path fill-rule="evenodd" clip-rule="evenodd"  d="M21 27.72a9.643 9.643 0 0 1-9.643-9.642V6.388a7.386 7.386 0 0 1 0-1.085.858.858 0 0 1 .963-.753.875.875 0 0 1 .77.963 7.135 7.135 0 0 0 0 .875v11.69a7.893 7.893 0 0 0 15.75 0V6.388a7.096 7.096 0 0 0 0-.875.882.882 0 0 1 1.75-.21c.027.36.027.723 0 1.085v11.69A9.642 9.642 0 0 1 21 27.72Z" fill="currentColor"/>
    <path fill-rule="evenodd" clip-rule="evenodd"  d="M30.712 17.01a.875.875 0 0 1-.454-.14l-.945-.56a.88.88 0 0 1 .91-1.505l.717.438c5.407-.175 6.44-6.58 6.632-8.96H4.41c.192 2.397 1.172 8.75 6.65 8.96l.717-.438a.88.88 0 0 1 .91 1.505l-.944.56a.875.875 0 0 1-.456.14c-6.842 0-8.662-7.595-8.662-11.602a.875.875 0 0 1 .875-.875h35a.875.875 0 0 1 .875.875c0 4.007-1.82 11.602-8.663 11.602ZM21 37.468a.875.875 0 0 1-.875-.875v-9.748a.875.875 0 0 1 1.75 0v9.748a.875.875 0 0 1-.875.875Z" fill="currentColor"/>
    <path fill-rule="evenodd" clip-rule="evenodd"  d="M30.748 37.468h-17.5a.875.875 0 1 1 0-1.75h17.5a.875.875 0 0 1 0 1.75Z" fill="currentColor"/>
  </symbol>

  <symbol id="facebookFollowIcon" viewBox="0 0 24 24">
    <path fill-rule="evenodd" clip-rule="evenodd"  d="M13.397 20.997v-8.196h2.765l.411-3.209h-3.176V7.548c0-.926.258-1.56 1.587-1.56h1.684v-2.86c-.82-.089-1.643-.131-2.467-.128-2.444 0-4.122 1.492-4.122 4.231v2.355H7.332v3.21h2.753v8.201h3.312Z" fill="currentColor"/>
  </symbol>

  <symbol id="twitterFollowIcon" viewBox="0 0 24 24">
    <path fill-rule="evenodd" clip-rule="evenodd"  d="M19.633 7.997c.013.175.013.349.013.523 0 5.325-4.053 11.461-11.46 11.461-2.282 0-4.402-.661-6.186-1.809.324.037.636.05.973.05a8.07 8.07 0 0 0 5.001-1.721 4.036 4.036 0 0 1-3.767-2.793c.249.037.499.062.761.062.361 0 .724-.05 1.061-.137a4.026 4.026 0 0 1-3.23-3.953v-.05c.537.299 1.16.486 1.82.511a4.021 4.021 0 0 1-1.796-3.354c0-.748.199-1.434.548-2.032a11.457 11.457 0 0 0 8.306 4.215c-.062-.3-.1-.611-.1-.923a4.024 4.024 0 0 1 4.028-4.028c1.16 0 2.207.486 2.943 1.272a7.957 7.957 0 0 0 2.556-.973c-.3.93-.93 1.72-1.771 2.22a8.073 8.073 0 0 0 2.319-.624 8.646 8.646 0 0 1-2.019 2.083Z" fill="currentColor"/>
  </symbol>

  <symbol id="instagramFollowIcon" viewBox="0 0 24 24">
    <path fill-rule="evenodd" clip-rule="evenodd"  d="M12.002 21.04c-2.46 0-2.75-.012-3.71-.054a6.583 6.583 0 0 1-2.185-.45 4.62 4.62 0 0 1-2.63-2.631 6.591 6.591 0 0 1-.419-2.187c-.056-.958-.056-1.272-.056-3.713 0-2.467.013-2.755.056-3.71a6.59 6.59 0 0 1 .419-2.184A4.61 4.61 0 0 1 6.11 3.479a6.533 6.533 0 0 1 2.184-.42c.955-.054 1.269-.054 3.708-.054 2.48 0 2.765.013 3.71.054.748.014 1.49.156 2.19.42a4.615 4.615 0 0 1 2.633 2.632c.267.71.41 1.46.421 2.217.056.958.056 1.27.056 3.71s-.014 2.76-.056 3.708a6.605 6.605 0 0 1-.42 2.189 4.626 4.626 0 0 1-2.634 2.632c-.7.262-1.439.404-2.186.419-.955.055-1.268.055-3.714.055Zm-.034-16.452c-2.446 0-2.7.012-3.655.055a4.99 4.99 0 0 0-1.67.31 2.99 2.99 0 0 0-1.718 1.713c-.2.54-.305 1.11-.311 1.687-.053.969-.053 1.223-.053 3.652 0 2.4.009 2.69.053 3.654.009.57.114 1.135.311 1.67.306.787.93 1.409 1.719 1.71a4.92 4.92 0 0 0 1.669.312c.968.056 1.223.056 3.655.056 2.453 0 2.707-.012 3.654-.056a4.962 4.962 0 0 0 1.67-.311 3.001 3.001 0 0 0 1.71-1.71c.2-.54.305-1.111.311-1.687h.011c.043-.956.043-1.211.043-3.654 0-2.443-.011-2.7-.054-3.655a5.062 5.062 0 0 0-.311-1.668 3.001 3.001 0 0 0-1.71-1.712 4.94 4.94 0 0 0-1.67-.311c-.967-.055-1.22-.055-3.654-.055Zm.034 12.036A4.623 4.623 0 1 1 16.622 12a4.63 4.63 0 0 1-4.62 4.624Zm0-7.626a3 3 0 1 0 3 3 3.007 3.007 0 0 0-3-3Zm4.8-.713a1.078 1.078 0 1 1 .008-2.156 1.078 1.078 0 0 1-.008 2.156Z" fill="currentColor"/>
  </symbol>

  <symbol id="pinterestFollowIcon" viewBox="0 0 24 24">
    <path fill-rule="evenodd" clip-rule="evenodd"  d="M10.67 15.097c-.506 2.726-1.122 5.34-2.95 6.705-.563-4.12.829-7.215 1.475-10.5-1.102-1.91.133-5.755 2.457-4.808 2.86 1.166-2.477 7.102 1.106 7.844 3.741.774 5.269-6.683 2.949-9.109-3.352-3.5-9.757-.079-8.969 4.934.192 1.226 1.421 1.598.491 3.29-2.145-.49-2.785-2.233-2.702-4.556.132-3.8 3.317-6.462 6.511-6.83 4.04-.466 7.831 1.527 8.354 5.44.59 4.416-1.823 9.2-6.142 8.855-1.171-.093-1.663-.69-2.58-1.265Z" fill="currentColor"/>
  </symbol>

  <symbol id="linkedinFollowIcon" viewBox="0 0 24 24">
    <path fill-rule="evenodd" clip-rule="evenodd"  d="M13 21H9V9h4v2a4.618 4.618 0 0 1 3.525-1.763A4.5 4.5 0 0 1 21 13.75V21h-4v-6.75a2.265 2.265 0 0 0-2.247-1.944A1.814 1.814 0 0 0 13 14.25V21Zm-6 0H3V9h4v12ZM5 7a2 2 0 1 1 0-4 2 2 0 0 1 0 4Z" fill="currentColor"/>
  </symbol>

  <symbol id="youtubeFollowIcon" viewBox="0 0 24 24">
    <path fill-rule="evenodd" clip-rule="evenodd" d="M12.006 19.012h-.02c-.062 0-6.265-.012-7.83-.437a2.5 2.5 0 0 1-1.764-1.765A26.495 26.495 0 0 1 1.986 12a26.646 26.646 0 0 1 .417-4.817A2.564 2.564 0 0 1 4.169 5.4c1.522-.4 7.554-.4 7.81-.4H12c.063 0 6.282.012 7.831.437.859.233 1.53.904 1.762 1.763.29 1.594.427 3.211.407 4.831a26.568 26.568 0 0 1-.418 4.811 2.51 2.51 0 0 1-1.767 1.763c-1.52.403-7.553.407-7.809.407Zm-2-10.007-.005 6 5.212-3-5.207-3Z" fill="currentColor"/>
  </symbol>

  <symbol id="dribbleFollowIcon" viewBox="0 0 24 24">
    <path fill-rule="evenodd" clip-rule="evenodd" d="M12 .571C5.688.571.571 5.688.571 12S5.688 23.428 12 23.428 23.429 18.312 23.429 12C23.429 5.688 18.312.57 12 .57Zm0 1.656c2.49 0 4.762.932 6.488 2.464-1.268 1.673-3.194 2.787-5.125 3.54A50.893 50.893 0 0 0 9.698 2.5 9.79 9.79 0 0 1 12 2.227H12Zm-4.158.926c1.275 1.906 2.509 3.674 3.636 5.674-2.851.74-6.073 1.183-9.05 1.19a9.79 9.79 0 0 1 5.414-6.863v-.001Zm11.73 2.669a9.734 9.734 0 0 1 2.2 6.113 22.927 22.927 0 0 0-6.797-.331c-.257-.642-.57-1.252-.868-1.909 1.973-.796 4.083-2.158 5.465-3.874Zm-7.3 4.517c.245.52.528 1.072.794 1.636-3.183 1.404-6.568 3.28-8.325 6.567a9.739 9.739 0 0 1-2.509-6.828c3.409-.016 6.754-.443 10.04-1.375Zm5.165 2.665c1.422 0 2.838.183 4.214.543a9.772 9.772 0 0 1-4.198 6.564c-.525-2.386-1.025-4.669-1.909-6.97a13.12 13.12 0 0 1 1.892-.138Zm4.265.177-.021.166c.008-.056.014-.11.02-.166Zm-7.966.406c.9 2.327 1.607 4.904 2.082 7.412a9.74 9.74 0 0 1-3.817.774 9.73 9.73 0 0 1-5.998-2.057 14.533 14.533 0 0 1 7.732-6.129h.001Z" fill="currentColor"/>
  </symbol>

  <symbol id="tiktokFollowIcon" viewBox="0 0 24 24">
    <path fill-rule="evenodd" clip-rule="evenodd" d="M16.6 5.82s.51.5 0 0A4.278 4.278 0 0 1 15.54 3h-3.09v12.4a2.592 2.592 0 0 1-2.59 2.5c-1.42 0-2.6-1.16-2.6-2.6 0-1.72 1.66-3.01 3.37-2.48V9.66c-3.45-.46-6.47 2.22-6.47 5.64 0 3.33 2.76 5.7 5.69 5.7 3.14 0 5.69-2.55 5.69-5.7V9.01a7.35 7.35 0 0 0 4.3 1.38V7.3s-1.88.09-3.24-1.48Z" fill="currentColor"/>
  </symbol>
</svg>



