<svg width="0" height="0" xmlns="http://www.w3.org/2000/svg">
  <symbol id="burgerIcon" viewBox="0 0 24 18">
    <path fill-rule="evenodd" clip-rule="evenodd" d="M0 0h24v3H0V0Zm0 7.5h24v3H0v-3ZM0 15h24v3H0v-3Z" fill="currentColor"/>
  </symbol>

  <symbol id="basketIcon" viewBox="0 0 24 24">
    <path fill-rule="evenodd" clip-rule="evenodd" d="M16.39 15.31H12.2a.5.5 0 1 1 0-1h4.19a.5.5 0 1 1 0 1ZM19.21 15a.388.388 0 0 1-.18 0 .49.49 0 0 1-.29-.64L21.12 8a.5.5 0 0 1 .64-.29.52.52 0 0 1 .3.65l-2.38 6.33a.52.52 0 0 1-.47.31ZM9 15.19a.49.49 0 0 1-.47-.34L5.39 5.31h-3a.5.5 0 0 1-.5-.5.51.51 0 0 1 .5-.5h3.36a.51.51 0 0 1 .47.34l3.29 9.88a.49.49 0 0 1-.31.63.45.45 0 0 1-.2.03Z" fill="currentColor"/>
    <path fill-rule="evenodd" clip-rule="evenodd" d="M10.54 19.69a3 3 0 1 1 0-6 3 3 0 0 1 0 6Zm0-5a2 2 0 1 0 0 4 2 2 0 0 0 0-4ZM18.05 19.69a3 3 0 1 1 0-6 3 3 0 0 1 0 6Zm0-5a2 2 0 1 0 0 4 2 2 0 0 0 0-4Z" fill="currentColor"/>
  </symbol>

  <symbol id="searchIcon" viewBox="0 0 24 24">
    <path fill-rule="evenodd" clip-rule="evenodd" d="M9.75 17A7.25 7.25 0 1 1 17 9.77 7.26 7.26 0 0 1 9.75 17Zm0-13.5A6.25 6.25 0 1 0 16 9.77a6.25 6.25 0 0 0-6.25-6.25V3.5Z" fill="currentColor"/>
    <path fill-rule="evenodd" clip-rule="evenodd" d="M21 21.52a.469.469 0 0 1-.35-.15l-6.48-6.48a.495.495 0 1 1 .7-.7l6.48 6.48a.48.48 0 0 1 0 .7.47.47 0 0 1-.35.15Z" fill="currentColor"/>
  </symbol>

  <symbol id="storyIcon" viewBox="0 0 40 40">
    <path fill-rule="evenodd" clip-rule="evenodd" d="M20.417 20a9.167 9.167 0 1 1 9.166-9.167A9.183 9.183 0 0 1 20.417 20Zm0-16.667a7.5 7.5 0 1 0 7.5 7.5 7.517 7.517 0 0 0-7.5-7.5Z" fill="currentColor"/>
    <path fill-rule="evenodd" clip-rule="evenodd" d="M5.417 33.333a.833.833 0 0 1-.834-.833A14.184 14.184 0 0 1 18.75 18.333h3.333a.833.833 0 1 1 0 1.667H18.75a12.5 12.5 0 0 0-12.5 12.5.833.833 0 0 1-.833.833ZM27.917 38.333a.833.833 0 0 1-.834-.833V24.167a.833.833 0 0 1 1.667 0V37.5a.834.834 0 0 1-.833.833Z" fill="currentColor"/>
    <path fill-rule="evenodd" clip-rule="evenodd" d="M34.583 31.667H21.25a.833.833 0 0 1 0-1.667h13.333a.833.833 0 0 1 0 1.667Z" fill="currentColor"/>
  </symbol>

  <symbol id="photographyIcon" viewBox="0 0 70 70">
    <path fill-rule="evenodd" clip-rule="evenodd" d="M30.158 51.188a1.487 1.487 0 1 1-.058-2.974 1.487 1.487 0 0 1 .058 2.974ZM40.862 51.188a1.458 1.458 0 1 0 0-2.917 1.458 1.458 0 0 0 0 2.916Z" fill="currentColor"/>
    <path fill-rule="evenodd" clip-rule="evenodd" d="M41.62 62.65H28.38a12.95 12.95 0 0 1 0-25.9h13.24a12.95 12.95 0 0 1 0 25.9ZM28.38 39.667a10.034 10.034 0 1 0 0 20.066h13.24a10.033 10.033 0 1 0 0-20.066H28.38Z" fill="currentColor"/>
    <path fill-rule="evenodd" clip-rule="evenodd" d="M58.333 43.925h-7.816a1.458 1.458 0 1 1 0-2.917h7.816a5.338 5.338 0 0 0 5.309-5.308 25.463 25.463 0 0 0-25.405-25.433h-6.154A25.462 25.462 0 0 0 6.65 35.7a5.338 5.338 0 0 0 5.308 5.308h7.525a1.459 1.459 0 0 1 0 2.917h-7.67A8.225 8.225 0 0 1 3.588 35.7 28.38 28.38 0 0 1 32.083 7.35h6.154a28.38 28.38 0 0 1 28.321 28.32 8.254 8.254 0 0 1-8.225 8.255Z" fill="currentColor"/>
    <path fill-rule="evenodd" clip-rule="evenodd" d="M9.246 35.962A12.6 12.6 0 0 1 4.608 35a1.458 1.458 0 0 1-.816-1.896 1.399 1.399 0 0 1 1.866-.816 10.15 10.15 0 0 0 3.588.67 9.48 9.48 0 0 0 5.337-17.266 1.459 1.459 0 0 1 1.634-2.392 12.396 12.396 0 0 1-6.942 22.662h-.03ZM64.925 35.904a18.171 18.171 0 0 1-16.8-18.054c-.006-2.204.4-4.39 1.196-6.446a1.46 1.46 0 0 1 1.896-.816 1.4 1.4 0 0 1 .816 1.866 15.196 15.196 0 0 0 13.009 20.417 1.458 1.458 0 1 1 0 2.916l-.117.117Z" fill="currentColor"/>
  </symbol>

  <symbol id="webIcon" viewBox="0 0 70 70">
    <path fill-rule="evenodd" clip-rule="evenodd" d="M26.688 32.083H12.104a4.9 4.9 0 0 1-4.9-4.87V12.628a4.93 4.93 0 0 1 4.9-4.9h14.584a4.93 4.93 0 0 1 4.9 4.9v14.583a4.9 4.9 0 0 1-4.9 4.871ZM12.104 10.617a2.013 2.013 0 0 0-1.983 1.983v14.583a1.983 1.983 0 0 0 1.983 1.984h14.584a1.984 1.984 0 0 0 1.983-1.984V12.6a2.012 2.012 0 0 0-1.983-1.983H12.104ZM57.896 32.083H43.313a4.9 4.9 0 0 1-4.9-4.9V12.6a4.93 4.93 0 0 1 4.9-4.9h14.583a4.93 4.93 0 0 1 4.9 4.9v14.583a4.9 4.9 0 0 1-4.9 4.9ZM43.313 10.617a2.012 2.012 0 0 0-1.984 1.983v14.583a1.983 1.983 0 0 0 1.984 1.984h14.583a1.984 1.984 0 0 0 1.983-1.984V12.6a2.013 2.013 0 0 0-1.983-1.983H43.313ZM26.688 62.27H12.104a4.93 4.93 0 0 1-4.9-4.9V42.789a4.9 4.9 0 0 1 4.9-4.871h14.584a4.9 4.9 0 0 1 4.9 4.9V57.4a4.93 4.93 0 0 1-4.9 4.87ZM12.104 40.834a1.983 1.983 0 0 0-1.983 1.984V57.4a2.012 2.012 0 0 0 1.983 1.983h14.584A2.013 2.013 0 0 0 28.67 57.4V42.817a1.983 1.983 0 0 0-1.983-1.984H12.104ZM57.896 62.27H43.313a4.93 4.93 0 0 1-4.9-4.9V42.789a4.9 4.9 0 0 1 4.9-4.871h14.583a4.9 4.9 0 0 1 4.9 4.9V57.4a4.929 4.929 0 0 1-4.9 4.87ZM43.313 40.805a1.983 1.983 0 0 0-1.984 1.983v14.584a2.012 2.012 0 0 0 1.984 1.983h14.583a2.012 2.012 0 0 0 1.983-1.983V42.787a1.983 1.983 0 0 0-1.983-1.983H43.313Z" fill="currentColor"/>
  </symbol>

  <symbol id="creativityIcon" viewBox="0 0 70 70">
    <path fill-rule="evenodd" clip-rule="evenodd" d="M35 53.112a1.458 1.458 0 0 1-1.02-.437L17.353 36.05a1.46 1.46 0 0 1 0-2.07L41.825 9.187a1.196 1.196 0 0 1 1.02-.438h16.772a1.487 1.487 0 0 1 1.458 1.458l.175 16.596a1.4 1.4 0 0 1-.438 1.05L36.022 52.675a1.487 1.487 0 0 1-1.021.438ZM20.417 35 35 49.583 58.333 26.25l-.175-14.583H43.575L20.417 35Z" fill="currentColor"/>
    <path fill-rule="evenodd" clip-rule="evenodd" d="M43.138 61.25a1.516 1.516 0 0 1-1.021-.408l-32.93-32.93a1.459 1.459 0 0 1 0-2.07 1.4 1.4 0 0 1 2.042 0L44.188 58.77a1.488 1.488 0 0 1 0 2.07c-.288.262-.662.407-1.05.409Z" fill="currentColor"/>
    <path fill-rule="evenodd" clip-rule="evenodd" d="M20.417 61.075c-.395 0-.772-.158-1.05-.438L9.246 50.663a1.488 1.488 0 0 1-.496-1.08c0-.787 0-.904 11.667-12.366a1.457 1.457 0 0 1 2.49 1.035c0 .387-.15.758-.42 1.035-3.15 3.267-8.195 8.255-10.179 10.296l8.109 7.963L30.712 47.22a1.464 1.464 0 1 1 2.071 2.07L21.292 60.639a1.458 1.458 0 0 1-.875.437ZM35 36.458a1.37 1.37 0 0 1-1.02-.437 1.4 1.4 0 0 1 0-2.042l11.666-11.666a1.444 1.444 0 1 1 2.041 2.041L36.022 36.021a1.372 1.372 0 0 1-1.021.437Z" fill="currentColor"/>
  </symbol>

  <symbol id="seoIcon" viewBox="0 0 70 70">
    <path fill-rule="evenodd" clip-rule="evenodd" d="M11.667 59.792a1.516 1.516 0 0 1-.846-.263 1.43 1.43 0 0 1-.73-1.196V17.5a1.458 1.458 0 0 1 .934-1.37l14.904-5.834c.34-.118.71-.118 1.05 0l14.146 5.542 16.888-5.542a1.342 1.342 0 0 1 1.312.204 1.4 1.4 0 0 1 .583 1.167V52.5a1.429 1.429 0 0 1-.991 1.37l-17.5 5.834c-.32.116-.672.116-.992 0l-14-5.512-14.35 5.512a1.662 1.662 0 0 1-.408.088Zm14.875-8.75c.182-.044.372-.044.554 0l13.737 5.745 16.13-5.454V13.68l-15.459 5.075c-.32.116-.671.116-.991 0l-14.088-5.512-13.417 5.133v37.917l12.921-4.93a.962.962 0 0 1 .496-.204l.117-.116Z" fill="currentColor"/>
    <path fill-rule="evenodd" clip-rule="evenodd" d="M26.425 54.075a1.459 1.459 0 0 1-1.458-1.458v-40.95a1.458 1.458 0 1 1 2.916 0V52.5a1.458 1.458 0 0 1-1.458 1.575ZM41.096 59.792a1.458 1.458 0 0 1-1.458-1.459V17.5a1.458 1.458 0 1 1 2.916 0v40.833a1.458 1.458 0 0 1-1.458 1.459Z" fill="currentColor"/>
  </symbol>

  <symbol id="cssIcon" viewBox="0 0 70 70">
    <path fill-rule="evenodd" clip-rule="evenodd"  d="M51.042 61.25H18.958A10.208 10.208 0 0 1 8.75 51.042V18.958A10.208 10.208 0 0 1 18.958 8.75h32.084A10.208 10.208 0 0 1 61.25 18.958v32.084A10.209 10.209 0 0 1 51.042 61.25ZM18.958 11.667a7.292 7.292 0 0 0-7.291 7.291v32.084a7.292 7.292 0 0 0 7.291 7.291h32.084a7.292 7.292 0 0 0 7.291-7.291V18.958a7.292 7.292 0 0 0-7.291-7.291H18.958Z" fill="currentColor"/>
    <path fill-rule="evenodd" clip-rule="evenodd" d="M10.208 49.03a1.401 1.401 0 0 1-1.108-.526 1.43 1.43 0 0 1 .175-2.041L22.983 35a10.208 10.208 0 0 1 14.35 1.313L40.6 40.22a7.262 7.262 0 0 0 10.383.817l7.846-6.855a1.487 1.487 0 0 1 2.071.146 1.428 1.428 0 0 1-.146 2.042l-7.846 6.854a10.18 10.18 0 0 1-14.583-1.138L35 38.267a7.262 7.262 0 0 0-10.238-.934L11.054 48.708a1.575 1.575 0 0 1-.846.321Z" fill="currentColor"/>
  </symbol>

  <symbol id="digitalIcon" viewBox="0 0 70 70">
    <path fill-rule="evenodd" clip-rule="evenodd"  d="M35 62.708A27.708 27.708 0 1 1 62.708 35 27.738 27.738 0 0 1 35 62.708Zm0-52.5A24.791 24.791 0 1 0 59.792 35 24.82 24.82 0 0 0 35 10.208Z" fill="currentColor"/>
    <path fill-rule="evenodd" clip-rule="evenodd" d="M35 50.196A15.196 15.196 0 1 1 50.196 35 15.225 15.225 0 0 1 35 50.196Zm0-27.475A12.28 12.28 0 1 0 47.28 35 12.308 12.308 0 0 0 35 22.72Z" fill="currentColor"/>
    <path fill-rule="evenodd" clip-rule="evenodd" d="M61.25 36.458H8.75a1.458 1.458 0 1 1 0-2.916h52.5a1.458 1.458 0 1 1 0 2.916Z" fill="currentColor"/>
    <path fill-rule="evenodd" clip-rule="evenodd" d="M35 62.708a1.458 1.458 0 0 1-1.458-1.458V8.75a1.458 1.458 0 1 1 2.916 0v52.5A1.458 1.458 0 0 1 35 62.708Z" fill="currentColor"/>
  </symbol>
</svg>



